/* XPM */
static char * enemy_xpm[] = {
"64 64 8 1",
" 	c None",
".	c #000000",
"+	c #A1665E",
"@	c #FFFFFF",
"#	c #5E66A1",
"$	c #E20C19",
"&	c #625F60",
"*	c #0CADE2",
"                                                                ",
"                 ..............................                 ",
"                 ..............................                 ",
"                 ..............................                 ",
"                 ..............................                 ",
"                 ..............................                 ",
"                 ..............................                 ",
"                   .++++...............+++++.                   ",
"                   .++++...............+++++.                   ",
"                   .++++++++++++++++++++++++.                   ",
"                   .++++++++++++++++++++++++.                   ",
"                   .++..++++++++++++++++..++.                   ",
"                   .++.@.++++++++++++++.@.++.                   ",
"                   .++.@@.++++++++++++.@@.++.                   ",
"                   .++.@#@.++++++++++.@#@.++.                   ",
"                   .++.@##@.++++++++.@##@.++.                   ",
"                   .++......++++++++......++.                   ",
"                   .++++++++++++++++++++++++.                   ",
"                   .++++++++++++++++++++++++.                   ",
"                    .++++++++++++++++++++++.                    ",
"                     .++++++++++++++++++++.                     ",
"                      .++++.........+++++.                      ",
"                       .+++.@@@@@@@.++++.                       ",
"           ..............++.........+++..............           ",
"           ...............++++++++++++...............           ",
"           ..........................................           ",
"           ..........................................           ",
"           ..........................................           ",
"           .....   ......$$$$$$$$$$$$........   .....           ",
"           .....   ......$$$$$$$$$$$$$.......   .....           ",
"           .....   ......$$.........$$$......   .....           ",
"           .....   ......$$..........$$......   .....           ",
"           .....   ......$$.........$$$......   .....           ",
"           .....   ......$$$$$$$$$$$$$.......   .....           ",
"           .....   ......$$$$$$$$$$$$........   .....           ",
"           .....   ......$$.......$$.........   .....           ",
"           .....   ......$$........$$........   .....           ",
"           .....   ......$$.........$$.......   .....           ",
"           .&&&.   ......$$..........$$......   .&&&.           ",
"           .&&&.   ..........................   .&&&.           ",
"          ..&&&..  ..........................  ..&&&..          ",
"          .&&&&&.  .&&&&&&&&&&&$$&&&&&&&&&&&.  .&&&&&.          ",
"          .&&&&&.  .&*&*&&&&&&&$$&&&&&&&*&*&.  .&&&&&.          ",
"          .&.&.&.  .&&&&&&&&&&&$$&&&&&&&&&&&.  .&.&.&.          ",
"          .&.&.&.  ..........................  .&.&.&.          ",
"          .......  ..........................  .......          ",
"                   ..........................                   ",
"                   ..........................                   ",
"                  ............................                  ",
"                  .&&&&&&&&.        .&&&&&&&&.                  ",
"                  .&&&&&&&&.        .&&&&&&&&.                  ",
"                  .&&&&&&&&.        .&&&&&&&&.                  ",
"                  .&&&&&&&&.        .&&&&&&&&.                  ",
"                  .&&&&&&&&.        .&&&&&&&&.                  ",
"                  .&&&&&&&&.        .&&&&&&&&.                  ",
"                  .&&&&&&&&.        .&&&&&&&&.                  ",
"                  .&&&&&&&&.        .&&&&&&&&.                  ",
"                  .&&&&&&&&.        .&&&&&&&&.                  ",
"                  .&&&&&&&&.        .&&&&&&&&.                  ",
"                  ..........        ..........                  ",
"                                                                ",
"                                                                ",
"                                                                ",
"                                                                "};
