/* XPM */
static char * exit_xpm[] = {
"64 64 2 1",
" 	c #6F3198",
".	c None",
"           ..         ..........         ..   ..                ",
"           ..         ..........         ..   ..                ",
"           ..         ..........         ..   ..                ",
"   ..........         ..........         ..   .........   ......",
"   ..........         ..........         ..   .........   ......",
"   ..........         ..........         ..   .........   ......",
"   ..........         ..........         ..   .........   ......",
"   ..........         ..........         ..   .........   ......",
"   ..........         ..........         ..   .........   ......",
"   ................   ..........   ........   .........   ......",
"   ................   ..........   ........   .........   ......",
"   ................   ..........   ........   .........   ......",
"   ................   ..........   ........   .........   ......",
"   ................   ..........   ........   .........   ......",
"   ................   ..........   ........   .........   ......",
"   ................   ..........   ........   .........   ......",
"   ................   ..........   ........   .........   ......",
"   ................   ..........   ........   .........   ......",
"   ................   ..........   ........   .........   ......",
"   ..................   ......   ..........   .........   ......",
"   ..................   ......   ..........   .........   ......",
"   ..................   ......   ..........   .........   ......",
"   ..................   ......   ..........   .........   ......",
"   ..................   ......   ..........   .........   ......",
"   ..................   ......   ..........   .........   ......",
"   ..................   ......   ..........   .........   ......",
"   ..................   ......   ..........   .........   ......",
"   ..................   ......   ..........   .........   ......",
"   ..................            ..........   .........   ......",
"   ..................            ..........   .........   ......",
"        .............            ..........   .........   ......",
"        .............            ..........   .........   ......",
"        .............            ..........   .........   ......",
"   ..................            ..........   .........   ......",
"   ..................            ..........   .........   ......",
"   ..................   ......   ..........   .........   ......",
"   ..................   ......   ..........   .........   ......",
"   ..................   ......   ..........   .........   ......",
"   ..................   ......   ..........   .........   ......",
"   ..................   ......   ..........   .........   ......",
"   ..................   ......   ..........   .........   ......",
"   ..................   ......   ..........   .........   ......",
"   ..................   ......   ..........   .........   ......",
"   ..................   ......   ..........   .........   ......",
"   ..................   ......   ..........   .........   ......",
"   ................   ..........   ........   .........   ......",
"   ................   ..........   ........   .........   ......",
"   ................   ..........   ........   .........   ......",
"   ................   ..........   ........   .........   ......",
"   ................   ..........   ........   .........   ......",
"   ................   ..........   ........   .........   ......",
"   ................   ..........   ........   .........   ......",
"   ................   ..........   ........   .........   ......",
"   ................   ..........   ........   .........   ......",
"   ..........         ..........   ........   .........   ......",
"   ..........         ..........         ..   .........   ......",
"   ..........         ..........         ..   .........   ......",
"   ..........         ..........         ..   .........   ......",
"   ..........         ..........         ..   .........   ......",
"   ..........         ..........         ..   .........   ......",
"   ..........         ..........         ..   .........   ......",
"           ..         ..........         ..   .........   ......",
"           ..         ..........         ..   .........   ......",
"           ..         ..........         ..   .........   ......"};
