/* XPM */
static char * floor_xpm[] = {
"64 64 2 2",
"g 	c #A9A9A9",
"x 	c #006400",
"g g g g g g g g g g g g g g g g g g g g g g g g g g g g g g g g g g g g g g g g g g g g g g g g g g g g g g g g g g g g g g g g ",
"g g g g g g g g g g g g g g g g g g g g g g g g g g g g g g g g g g g g g g g g g g g g g g g g g g g g g g g g g g g g g g g g ",
"g g g g g g g g g g g g g g g g g g g g g g g g g g g g g g g g g g g g g g g g g g g g g g g g g g g g g g g g g g g g g g g g ",
"g g g g g g g x x x g g g g g g g g g g g g g g g g g g g g g g g x x x g g g g g g g g g g g g g g g g g g g g g g g g g g g g ",
"g g g g g g g x x x g g g g g g g g g x x x g g g g g g g g g g g x x x g g g g g g g g x x x g g g g g g g g g g g g g g g g g ",
"g g g g g g g x x x g g g g g g g g g x x x g g g g g g g g g g g x x x g g g g g g g g x x x g g g g g g g g g g g g g g g g g ",
"g g g g g g g g g g g g g g g g g g g x x x g g g g g g g g g g g g g g g g x x x g g g x x x g g g g g g g g g g g g g g g g g ",
"g g g g g g g g g g g g x x x g g g g g g g g g g g g g g g g g g g g g g g x x x g g g g g g g g g g g g g g g g g g g g g g g ",
"g g g g g g g g g g g g x x x g g g g g g g g g g g g g g g g g g g g g g g x x x g g g g g g g g x x x g g g g g g g g g g g g ",
"g g g g g g g g g g g g x x x g g g g g g g g g g g g g g g g g g g g g g g g g g g g g g g g g g x x x g g g g g g g g g g g g ",
"g g g g g g g g g g g g g g g g g g g g g g g g g g g g x x x g g g g g g g g g g g g g g g g g g x x x g g g g g g g g g g g g ",
"g g g g g g g g g g g g g g g g g g g g g g g g g g g g x x x g g g g g g g g g g g g g g g g g g g g g g g g g g g g g g g g g ",
"g g g g g g g g g g g g g g g g g g g g g g g g g g g g x x x g g g g g g g g g g g g g g g g g g g g g g g g g g g g g g g g g ",
"g g g g g g g g g g g g g g g g g g g g g g g g g g g g g g g g g g g g g g g g g g g g g g g g g g g g g g g g g g g g g g g g ",
"g g g g g g g g g g g g g g g g g g g g g g g g g g g g g g g g g g g g g g g g g g g g g g g g g g g g g g g g g g g g g g g g ",
"g g g g g g g g g g g x x x g g g g g g x x x g g g g g g g g g g g g g g g g g g g g g g g g g g g g g g g g g g g g g g g g g ",
"g g g g g g g g g g g x x x g g g g g g x x x g g g g g g g g g g g g g g g g g g x x x g g g g g g g g g g g g g g g g g g g g ",
"g g g g g g g g g g g x x x g g g g g g x x x g g g g g g g g g g g g g g g g g g x x x g g g g g g g g g g g g g g g g g g g g ",
"g g g g g g g g g g g g g g g g g g g g g g g g g g g x x x g g g g g g g g g g g x x x g g g g g g g g g g g g g g g g g g g g ",
"g g g g g g g g g g g g g g g g g g g g g g g g g g g x x x g g g g g g g g g g g g g g g g g g g g g g x x x g g g g g g g g g ",
"g g g g g g g g g g g g g g g g g g g g g g g g g g g x x x g g g g g g g g g g g g g g g g g g g g g g x x x g g g g g g g g g ",
"g g g g g g g x x x g g g g g g g g g g g g g g g g g g g g g g g g g g g g g g g g g g g g g g g g g g x x x g g g g g g g g g ",
"g g g g g g g x x x g g g g g g g g g g g g g g g g g g g g g g g g g g g g g g g g g g g g g g g g g g g g g g g g g g g g g g ",
"g g g g g g g x x x g g g g g g g g g g g g g g g g g g g g g g g g g x x x g g g g g g g g g g g g g g g g g g g g g g g g g g ",
"g g g g g g g g g g g g g g g g g g g g g g g g g g g g g g g g g g g x x x g g g g g g x x x g g g g g g g g g g g g g g g g g ",
"g g g g g g g g g g g g g g g g g g g g g g g g g g g g g g g g g g g x x x g g g g g g x x x g g g g g g g g g g g g g g g g g ",
"g g g g g g g g g g g g g g g g g x x x g g g g g g g g g g g g g g g g g g g g g g g g x x x g g g g g g g g g g g g g g g g g ",
"g g g g g g g g g g g g g g g g g x x x g g g g g g g g g g g g g g g g g g g g g g g g g g g g g g g g g g g g g g x x x g g g ",
"g g g g g g g g g g g g g g g g g x x x g g g g g g x x x g g g g g g g g g g g g g g g g g g g g g g g g g g g g g x x x g g g ",
"g g g g g g g g g g g g g g g g g g g g g g g g g g x x x g g g g g g g g g g g g g g g g g g g g g g g g g g g g g x x x g g g ",
"g g g g g g g g g g g g g g g g g g g g g g g g g g x x x g g g g g g g g g g g g g g g g g g g g x x x g g g g g g g g g g g g ",
"g g g g g g g g g g g g g g g g g g g g g g g g g g g g g g g g g g g g g g g g g g g g g g g g g x x x g g g g g g g g g g g g ",
"g g g g g g g g g g g g g g g g g g g g g g g g g g g g g g g g g g g g g g g g g g g g g g g g g x x x g g g g g g g g g g g g ",
"g g g g g g x x x g g g g g g g g g g g g g g g g g g g g g g g g g x x x g g g g g g g g g g g g g g g g g g g g g g g g g g g ",
"g g g g g g x x x g g g g g g g g g g g g g g g g g g g g g g g g g x x x g g g g g g g g g g g g g g g g g g g g g g g g g g g ",
"g g g g g g x x x g g g g g g g g x x x g g g g g g g g g g g g g g x x x g g g g g g g g g g g g g g g g g g g g g g g g g g g ",
"g g g g g g g g g g g g g g g g g x x x g g g g g g g g g g g g g g g g g g g g g g g g g g g g g g g g g g g g g g g g g g g g ",
"g g g g g g g g g g g g g g g g g x x x g g g g g g g g g g g g g g g g g g g g g g g g g g g g g g g g g g g g g g g g g g g g ",
"g g g g g g g g g g g g g g g g g g g g g g g g g g g g g g g g g g g g g g g g g g g x x x g g g g g g g g g g g g g g g g g g ",
"g g g g g g g g g g g g g g g g g g g g g g g g g g g g g g g g g g g g g g g g g g g x x x g g g g g g g g g x x x g g g g g g ",
"g g g g g g g g g g g x x x g g g g g g g g g g g g g x x x g g g g g g g g g g g g g x x x g g g g g g g g g x x x g g g g g g ",
"g g g g g g g g g g g x x x g g g g g g g g g g g g g x x x g g g g g g g g g g g g g g g g g g g g g g g g g x x x g g g g g g ",
"g g g g g g g g g g g x x x g g g g g g g g g g g g g x x x g g g g g g g g g g g g g g g g g g g g g g g g g g g g g g g g g g ",
"g g g g g g g g g g g g g g g g g g g g g g g g g g g g g g g g g g g g g g g g g g g g g g g g g g g g g g g g g g g g g g g g ",
"g g g g g g g g g g g g g g g g g g g g g g g g g g g g g g g g g g g g g g g g g g g g g g g g g g g g g g g g g g g g g g g g ",
"g g g x x x g g g g g g g g g g g g g g g g g g g g g g g g g g g g g x x x g g g g g g g g g g g g g g g g g g g g g g g g g g ",
"g g g x x x g g g g g g g g g g g g g g g g g g g g g g g g g g g g g x x x g g g g g g g g g g g g g g g g g g g g g g g g g g ",
"g g g x x x g g g g g g g x x x g g g g g g g g g g g g g g g g g g g x x x g g g g g g g g g g g g g g g g g g g g g g g g g g ",
"g g g g g g g g g g g g g x x x g g g g g g g g g g x x x g g g g g g g g g g g g g g g g g x x x g g g g g g g g g g g g g g g ",
"g g g g g g g g g g g g g x x x g g g g g g g g g g x x x g g g g g g g g g g g g g g g g g x x x g g g g g g g g g g g g g g g ",
"g g g g g g g g g g g g g g g g g g g g g g g g g g x x x g g g g g g g g g g g g g g g g g x x x g g g g g g g g g g g g g g g ",
"g g g g g g g g g g g g g g g g g g g g g g g g g g g g g g g g g g g g g g g g g g g g g g g g g g g g g g g g g g g g g g g g ",
"g g g g g g g g g g g g g g g g g g g g g g g g g g g g g g g g g g x x x g g g g g g g g g g g g g g g g g g g g g g g g g g g ",
"g g g g g g x x x g g g g g g g g g g g g g g g g g g g g g g g g g x x x g g g g g g g g g g g g g g g g g g g g g g g g g g g ",
"g g g g g g x x x g g g g g g g g g g g g g x x x g g g g g g g g g x x x g g g g g g g g g g g g g g g g g g g g g g g g g g g ",
"g g g g g g x x x g g g g g g g g g g g g g x x x g g g g g g g g g g g g g g g g g g g g g g g g g g g g x x x g g g g g g g g ",
"g g g g g g g g g g g g g g g g g g g g g g x x x g g g g g g g g g g g g g g g g x x x g g g g g g g g g x x x g g g g g g g g ",
"g g g g g g g g g g g g g g g g g g g g g g g g g g g g g g g g g g g g g g g g g x x x g g g g g g g g g x x x g g g g g g g g ",
"g g g g g g g g g g g g g g g g g x x x g g g g g g g g g g g g g g g g g g g g g x x x g g g g g g g g g g g g g g g g g g g g ",
"g g g g g g g g g g g g g g g g g x x x g g g g g g g g g g g g g g g g g g g g g g g g g g g g g g g g g g g g g g g g g g g g ",
"g g g g g g g g g g g g g g g g g x x x g g g g g g g g g g g g g g g g g g g g g g g g g g g g g g g g g g g g g g g x x x g g ",
"g g g g g g g g g g g g g g g g g g g g g g g g g g x x x g g g g g g g g g g g g g g g g g g g g g g g g g g g g g g x x x g g ",
"g g g g g g g g g g g g g g g g g g g g g g g g g g x x x g g g g g g g g g g g g g g g g g g g g g g g g g g g g g g x x x g g ",
"g g g g g g g g g g g g g g g g g g g g g g g g g g x x x g g g g g g g g g g g g g g g g g g g g g g g g g g g g g g g g g g g "};
