/* XPM */
static char * mew_xpm[] = {
"64 64 4 2",
"  	c None",
"@ 	c #000000",
"* 	c #FFFFFF",
"/ 	c #0CADE2",
"                                                                                                                                ",
"                                                                                                                                ",
"                                                                                                                                ",
"                                                                                                                                ",
"                                                            @ @ @ @ @ @ @           @ @ @ @ @ @ @           @ @ @ @ @           ",
"                                                            @ / / / / * @ @         @ * * * * * @ @         @ * * * @ @         ",
"                                                            @ / / / / * * @ @ @ @ @ @ * * * * * * @ @ @ @ @ @ * * * * @         ",
"                                                            @ / / / / * * * * @ / / * * * * * * * * * * * * * * * * * @         ",
"                                                            @ / / / / * * * * @ / / * * * * * * * * * * * * * * * * * @         ",
"                                                            @ / / / / * * * * * * * * * * * * * * * * * * * * * * * * @         ",
"                                                            @ / / / / / * * * * * * * * * * * * * * * * * * * * * * @           ",
"                      @ @ @ @ @ @                             @ / / / / / * * * * * * * * * * * * * * * * * * * * * @           ",
"                      @ / / / / @                             @ / / / / / * * * * * * * * * * * * * * * * * * * * * @           ",
"                      @ / / / / @                             @ / / / / / * * * * * * * * * * * * * * * * * * * * * @           ",
"                      @ / / / / @ @ @                         @ / / / / / * * * * * * * * * * * * * * * * * * * * * * @         ",
"                      @ / / / / / / @                         @ / / / / / * * * * * * * * * * * * * * * * * * * @ @ @ @         ",
"                      @ / / / / / / @                       @ / / / / / / * * * * * * * * * * * * * * * * * * * @ @ @ @         ",
"                      @ / / / / / * @ @                     @ / / / / / / @ @ @ @ @ * * * * * * * * * * * * * * @ * * @         ",
"                      @ / / / / / * * @                     @ / / / / / @ * * * @ @ @ @ * * * * * * * * * * * @ @ * * @         ",
"                    @ * * * * * * * * @                     @ / / / / / @ * * * * @ @ @ * * * * * * * * * * * @ @ * * @         ",
"                    @ * * * * * * * * @                       @ @ / / / @ * * * @ * * * @ * * * * * * * * * * @ @ @ @           ",
"                @ @ @ * * * * * * * @ @                       @ @ / / / / * * @ @ * * * @ * * * * * * * * * * @ @ @ @           ",
"                @ * * * * * * * * @ @                         @ @ / / / / * * @ @ @ @ @ @ * * * * * * * * * * * * @ @           ",
"                @ * * * * * * * * @ @                             @ / / / / / @ @ @ @ @ @ * * * * * * * * * * * * @ @           ",
"              @ / / / / / * * * @ @                           @ @ @ / / @ / / / / / / @ @ * * * * * * * * * * * @ @             ",
"            @ / / / / / / * * @ @                             @ @ @ / / @ / / / / / / / / / * * * * * * * * * * @               ",
"          @ / / / / / / / @ @ @                               @ / / / / / @ @ @ / / / / / / * * * * * * * * * * @               ",
"          @ / / / / / / / @                                   @ / / / / / @ @ @ / / / / / / / / / / * * @ @ @ @                 ",
"          @ / / / / / @ @ @                                   @ / / / / / / / / / / / / / / / / / / * * @ @ @ @                 ",
"      @ @ @ / / / @ @                               @ @ @ @ @ / / / / / / / / * * * * @ @ @ @ @ @ @ @ @ @                       ",
"    @ * * / / / @ @                               @ @ / / / / @ @ @ * * * * * * * * * / / @ @                                   ",
"    @ * * / / @ @                                 @ / / / / / / / / * * * * * * * * / / / @ @ @                                 ",
"    @ * * / @ @                               @ @ @ * * @ @ @ * * * * * * * * * * * @ / / / @ @ @ @                             ",
"    @ * * @                                 @ @ @ * * * * * * * * * * * * * * * * * @ / / / * * @ @ @ @ @ @                     ",
"    @ * * @                                 @ / / @ * * * / / @ @ * * * * * * * * * @ / / * * * * / / * * @                     ",
"    @ * * @                                 @ / / @ * * * / / @ @ * * * * * * * * * @ @ @ * * * * / / * * @                     ",
"    @ * * @                             @ @ @ / / / @ * * / / @ * * * * * * * * * * @ @ @ @ @ @ * * * * @                       ",
"    @ * * * @                           @ @ / / * * * @ @ @ @ @ * * * * * * * * * * @ @ @     @ @ * * @ @                       ",
"    @ * * * @                           @ @ / / * * * * * * * * * * * * * * * * * * @ @         @ @ @ @ @                       ",
"      @ * * @ @ @ @                   @ @ @ / / * * * * * * * * * * * * * * * * * * @ @                                         ",
"      @ * * * * * @ @                 @ / / / * * * * * * * * * * * * * * * * * * * @ @                                         ",
"      @ @ * * * * * @                 @ / / / * * * * * * * * * * * * * * * * * * * @ @                                         ",
"          @ * * * * @ @ @ @ @ @       @ / / * * * * * * * * @ * * * * * * * * * * * @ @ @                                       ",
"            @ * * * * * * / / @ @ @ @ @ / / * * * * * * / / @ * * * * * * * * * @ @ / / @                                       ",
"              @ * * * * * / / / / / / @ / / * * * * * * / / @ / / / / / / / / / / / / / @                                       ",
"                @ @ @ @ @ / / / / / / @ / / * * * * * * / / @ / / / / / / / / / / / / / @                                       ",
"                        @ @ @ @ @ @ @ @ / / / / * * * * / @ / / / / / / / / / / / / / / @                                       ",
"                                      @ / / / / / * * / @ / / / / / / / / / / / / / / / @                                       ",
"                                      @ / / / / / / / @ @ @ @ @ @ @ @ @ @ / / / / / / / @ @                                     ",
"                                  @ @ @ / / / / / / / @                 @ / / / / / / * @ @                                     ",
"                            @ @ @ @ @ / / / / / / / / @                 @ / / * * * * * @ @ @ @ @ @ @ @ @ @                     ",
"                            @ / / / / / / / / / @ @ @                   @ @ * * * * * * * * * * @ * * * * @                     ",
"                      @ @ @ @ * * * * * * * / @ @                         @ @ * * * * * * * * * * * * * * @ @                   ",
"                      @ / / / / * * * * * * / / @                           @ * * * * * * * * * * / / / / / @                   ",
"                      @ / / / / * * * * * * / / @                             @ @ @ @ * * * * / / / @ / / / @                   ",
"                      @ / / / / @ / / / / / / @ @                                   @ @ @ @ @ / / / @ / / / @                   ",
"                      @ / / @ @ / / / / / / @ @                                             @ @ / / @ / @ @                     ",
"                      @ / / @ @ / / / / / @ @                                                 @ @ @ @ @ @ @                     ",
"                      @ / / @ @ / / / / @ @                                                                                     ",
"                        @ @ @ @ @ @ @ @                                                                                         ",
"                                                                                                                                ",
"                                                                                                                                ",
"                                                                                                                                ",
"                                                                                                                                "};
