/* XPM */
static char * mew2_xpm[] = {
"64 64 4 1",
" 	c None",
".	c #000000",
"+	c #FFFFFF",
"@	c #0CADE2",
"                                                                ",
"                                                                ",
"                                                                ",
"                                                                ",
"     .....     .......     .......                              ",
"    ..+++.    ..+++++.    ..+@@@@.                              ",
"    .++++......++++++......++@@@@.                              ",
"    .+++++++++++++++++@@.++++@@@@.                              ",
"    .+++++++++++++++++@@.++++@@@@.                              ",
"    .++++++++++++++++++++++++@@@@.                              ",
"     .++++++++++++++++++++++@@@@@.                              ",
"     .+++++++++++++++++++++@@@@@.              ......           ",
"     .+++++++++++++++++++++@@@@@.              .@@@@.           ",
"     .+++++++++++++++++++++@@@@@.              .@@@@.           ",
"    .++++++++++++++++++++++@@@@@.            ...@@@@.           ",
"    ....+++++++++++++++++++@@@@@.            .@@@@@@.           ",
"    ....+++++++++++++++++++@@@@@@.           .@@@@@@.           ",
"    .++.++++++++++++++.....@@@@@@.          ..+@@@@@.           ",
"    .++..+++++++++++....+++.@@@@@.          .++@@@@@.           ",
"    .++..+++++++++++...++++.@@@@@.          .++++++++.          ",
"     ....++++++++++.+++.+++.@@@..           .++++++++.          ",
"     ....++++++++++.+++..++@@@@..           ..+++++++...        ",
"     ..++++++++++++......++@@@@..            ..++++++++.        ",
"     ..++++++++++++......@@@@@.              ..++++++++.        ",
"      ..+++++++++++..@@@@@@.@@...             ..+++@@@@@.       ",
"       .++++++++++@@@@@@@@@.@@...              ..++@@@@@@.      ",
"       .++++++++++@@@@@@...@@@@@.               ...@@@@@@@.     ",
"        ....++@@@@@@@@@@...@@@@@.                 .@@@@@@@.     ",
"        ....++@@@@@@@@@@@@@@@@@@.                 ...@@@@@.     ",
"           ..........++++@@@@@@@@.....               ..@@@...   ",
"                 ..@@+++++++++...@@@@..               ..@@@++.  ",
"                ...@@@++++++++@@@@@@@@.                ..@@++.  ",
"              ....@@@.+++++++++++...++...               ..@++.  ",
"          ......++@@@.+++++++++++++++++...                .++.  ",
"          .++@@++++@@.+++++++++..@@+++.@@.                .++.  ",
"          .++@@++++...+++++++++..@@+++.@@.                .++.  ",
"           .++++......++++++++++.@@++.@@@...              .++.  ",
"           ..++..  ...++++++++++.....+++@@..             .+++.  ",
"           .....    ..++++++++++++++++++@@..             .+++.  ",
"                    ..++++++++++++++++++@@...         ....++.   ",
"                    ..+++++++++++++++++++@@@.        ..+++++.   ",
"                    ..+++++++++++++++++++@@@.        .+++++..   ",
"                   ...+++++++++++.++++++++@@.   ......++++.     ",
"                   .@@..+++++++++.@@++++++@@.....@@++++++.      ",
"                   .@@@@@@@@@@@@@.@@++++++@@.@@@@@@+++++.       ",
"                   .@@@@@@@@@@@@@.@@++++++@@.@@@@@@.....        ",
"                   .@@@@@@@@@@@@@@.@++++@@@@........            ",
"                   .@@@@@@@@@@@@@@@.@++@@@@@.                   ",
"                  ..@@@@@@@..........@@@@@@@.                   ",
"                  ..+@@@@@@.        .@@@@@@@...                 ",
"          ..........+++++@@.        .@@@@@@@@.....              ",
"          .++++.++++++++++..         ...@@@@@@@@@.              ",
"         ..++++++++++++++..            ..@+++++++....           ",
"         .@@@@@++++++++++.             .@@++++++@@@@.           ",
"         .@@@.@@@++++....              .@@++++++@@@@.           ",
"         .@@@.@@@.....                 ..@@@@@@.@@@@.           ",
"          ..@.@@..                      ..@@@@@@..@@.           ",
"          .......                        ..@@@@@..@@.           ",
"                                          ..@@@@..@@.           ",
"                                            ........            ",
"                                                                ",
"                                                                ",
"                                                                ",
"                                                                "};
