/* XPM */
static char * mew_front_xpm[] = {
"64 64 4 1",
" 	c None",
".	c #000000",
"+	c #0CADE2",
"@	c #FFFFFF",
"                                                                ",
"                          ............                          ",
"                         .++++++++++++.                         ",
"                   ......++++++++++++++......                   ",
"                   .++++.++++++++++++++.++++.                   ",
"                   .+++.++++++++++++++++.+++.                   ",
"                   .++.++++++++++++++++++.++.                   ",
"                   .+.++++++++++++++++++++.+.                   ",
"                   ..++++++++++++++++++++++..                   ",
"                   .++++++++++++++++++++++++.                   ",
"                   .++++++++++++++++++++++++.                   ",
"                   .++..++++++++++++++++..++.                   ",
"                   .++.@.++++++++++++++.@.++.                   ",
"                   .++.@@.++++++++++++.@@.++.                   ",
"                   .++.@@@.++++++++++.@@@.++.                   ",
"                   .++.@@@@.++++++++.@@@@.++.                   ",
"                   .++......++++++++......++.                   ",
"                   .++++++++++++++++++++++++.                   ",
"                   .++++++++++++++++++++++++.                   ",
"                    .++++++++++++++++++++++.                    ",
"   .......           .++++++++++++++++++++.                     ",
"  .+++++++.           .++++++++++++++++++.                      ",
" .+++++++++.           .++++++++++++++++.                       ",
" .+++++++++.       ......++++++++++++++......                   ",
" .+++++++++.       .+++++.++++++++++++.+++++.                   ",
" .+++++++++.       .++++++............++++++.                   ",
" .+++++++++.       .++++++++++++++++++++++++.                   ",
" .+++++++++.       .++++++++++++++++++++++++.                   ",
" .+++++++++.       .++++++++++++++++++++++++.                   ",
"  .++++++..        .++++++++++++++++++++++++.                   ",
"  .+++++..      ....++++++++++++++++++++++++....                ",
"  .++++..      .+++.++++++++++++++++++++++++.+++.               ",
"  .+++..      .++++.++++++++++++++++++++++++.++++.              ",
"  .++.       .+++++.++++++++++++++++++++++++.+++++.             ",
"  .++.      .++++...++++++++++++++++++++++++...++++.            ",
"  .++.      .+++.  .++++++++++++++++++++++++.  .+++.            ",
"  .++.      .+.+.  .++++++++++++++++++++++++.  .+.+.            ",
"  .+++.     .....  .++++++++++++++++++++++++.  .....            ",
"  .+++.            .++++++++++++++++++++++++.                   ",
"   .++....         .++++++++++++++++++++++++.                   ",
"   .+++++..        .++++++++++++++++++++++++.                   ",
"   ..+++++.        .++++++++++++++++++++++++.                   ",
"     .++++......   .++++++++++++++++++++++++.                   ",
"      .++++++++.....++++++++++++++++++++++++.                   ",
"       .+++++++++++.++++++++++++++++++++++++.                   ",
"        .....++++++.++++++++++++++++++++++++.                   ",
"            ........++++++++++++++++++++++++.                   ",
"                   .++++++++++++++++++++++++.                   ",
"                   .+++++++..........+++++++..                  ",
"                  ..+++++++.        .++++++++.                  ",
"                  .++++++++.        .++++++++.                  ",
"                  .++++++++.        .++++++++.                  ",
"                  .++++++++.        .++++++++.                  ",
"                  .++++++++.        .++++++++.                  ",
"                  .++++++++.        .++++++++.                  ",
"                  .++++++++.        .++++++++.                  ",
"                  .++++++++.        .++++++++.                  ",
"                  .++.++.++.        .++.++.++.                  ",
"                  .++.++.++.        .++.++.++.                  ",
"                  ..........        ..........                  ",
"                                                                ",
"                                                                ",
"                                                                ",
"                                                                "};
