/* XPM */
static char * mew_back_xpm[] = {
"64 64 4 1",
" 	c None",
".	c #000000",
"+	c #0CADE2",
"#	c #2AF942",
"                                                                ",
"                          ............                          ",
"                         .++++++++++++.                         ",
"                   ......++++++++++++++......                   ",
"                   .++++++++++++++++++++++++.                   ",
"                   .++++++++++++++++++++++++.                   ",
"                   .++++++++++++++++++++++++.                   ",
"                   .++++++++++++++++++++++++.                   ",
"                   .++++++++++++++++++++++++.                   ",
"                   .++++++++++++++++++++++++.                   ",
"                   .++++++++++++++++++++++++.                   ",
"                   .++++++++++++++++++++++++.                   ",
"                   .++++++++++++++++++++++++.                   ",
"                   .++++++++++++++++++++++++.                   ",
"                   .++++++++++++++++++++++++.                   ",
"                   .++++++++++++++++++++++++.                   ",
"                   .++++++++++++++++++++++++.                   ",
"                   .++++++++++++++++++++++++.                   ",
"                   .++++++++++++++++++++++++.                   ",
"                    .++++++++++++++++++++++.                    ",
"                     .++++++++++++++++++++.           .......   ",
"                      .++++++++++++++++++.           .+++++++.  ",
"                       .++++++++++++++++.           .+++++++++. ",
"                   ......++++++++++++++......       .+++++++++. ",
"                   .+++++.++++++++++++.+++++.       .+++++++++. ",
"                   .++++++............++++++.       .+++++++++. ",
"                   .++++++++++++++++++++++++.       .+++++++++. ",
"                   .++++++++++++++++++++++++.       .+++++++++. ",
"                   .++++++++++++++++++++++++.       .+++++++++. ",
"                   .+#+++#+###+##+++##++###+.        ..++++++.  ",
"                ....+#+++++#+++#+#+#++#+#+#+....      ..+++++.  ",
"               .+++.+#+++#+#+++#+#+#++#+#+#+.+++.      ..++++.  ",
"              .++++.+#+++#++#++###+#++#+###+.++++.      ..+++.  ",
"             .+++++.+#+++#+++#+#+#+#++#+#+#+.+++++.       .++.  ",
"            .++++...+#+++#+++#+#+#+#++#+#+#+...++++.      .++.  ",
"            .+++.  .+###+#+###+##+++##++#+#+.  .+++.      .++.  ",
"            .+.+.  .++++++++++++++++++++++++.  .+.+.      .++.  ",
"            .....  .++++++++++++++++++++++++.  .....     .+++.  ",
"                   .++++#++++++#####++++++++.            .+++.  ",
"                   .++++#++#+++++++#++++++++.         ....++.   ",
"                   .++++#++#+++++++#++++++++.        ..+++++.   ",
"                   .++++#####++#####++++++++.        .+++++..   ",
"                   .+++++++#+++#++++++++++++.   ......++++.     ",
"                   .+++++++#+++#++++++...........++++++++.      ",
"                   .+++++++#+++#####+.++++++++++++++++++.       ",
"                   .++++++++++++++++.++++++++++++++.....        ",
"                   .++++++++++++++++................            ",
"                   .++++++++++++++++++++++++.                   ",
"                  ..+++++++..........+++++++.                   ",
"                  .++++++++.        .+++++++..                  ",
"                  .++++++++.        .++++++++.                  ",
"                  .++++++++.        .++++++++.                  ",
"                  .++++++++.        .++++++++.                  ",
"                  .++++++++.        .++++++++.                  ",
"                  .++++++++.        .++++++++.                  ",
"                  .++++++++.        .++++++++.                  ",
"                  .++++++++.        .++++++++.                  ",
"                  .++.++.++.        .++.++.++.                  ",
"                  .++.++.++.        .++.++.++.                  ",
"                  ..........        ..........                  ",
"                                                                ",
"                                                                ",
"                                                                ",
"                                                                "};
