/* XPM */
static char * pokeball_vpm[] = {
"64 64 4 2",
"  	c None",
"b 	c #FFFFFF",
"p 	c #000000",
"v 	c #FF0000",
"                                                                                                                                ",
"                                          p p p p p p p p p p p p p p p p p p p p                                               ",
"                                          p p p p p p p p p p p p p p p p p p p p p p                                           ",
"                            p p p p p p p p v v v v v v v v v v v v v v v v v v v v p p p p p p p p                             ",
"                            p p p p p p p p v v v v v v v v v v v v v v v v v v v v p p p p p p p p                             ",
"                          p v v v v v v v v v v v v v v v v v v v v v v v v v v v v v v v v v v v p                             ",
"                          p v v v v v v v v v v v v v v v v v v v v v v v v v v v v v v v v v v v p p                           ",
"                      p p v v v v v v v v v v v v v v v v v v v v v v v v v v v v v v v v v v v v p p                           ",
"                      p p v v v v v v v v v v v v v v v v v v v v v v v v v v v v v v v v v v v v p p p p                       ",
"                  p p p v v v v v v v v v v v v v v v v v v v v v v v v v v v v v v v v v v v v v v v v p p                     ",
"              p p v v v v v v v v v v v v v v v v v v v v v v v v v v v v v v v v v v v v v v v v v v v p p p p                 ",
"              p v v v v v v v v v v v v v v v v v v v v v v v v v v v v v v v v v v v v v v v v v v v v v v v p                 ",
"            p p v v v v v v v v v v v v v v v v v v v v v v v v v v v v v v v v v v v v v v v v v v v v v v v p                 ",
"          p v v v v v v v v v v v v v v v v v v v v v v v v v v v v v v v v v v v v v v v v v v v v v v v v v p p p             ",
"      p p p v v v v v v v v b b b b b b b v v v v v v v v v v v v v v v v v v v v v v v v v v v v v v v v v v v v v p           ",
"      p v v v v v v v v v v b b b b b b b v v v v v v v v v v v v v v v v v v v v v v v v v v v v v v v v v v v v v p           ",
"      p v v v v v v v v v v b b b b b b b v v v v v v v v v v v v v v v v v v v v v v v v v v v v v v v v v v v v v p           ",
"      p v v v v v v v v v v b b b b b b b v v v v v v v v v v v v v v v v v v v v v v v v v v v v v v v v v v v v v p           ",
"      p v v v v v v v v v v b b b b b b b v v v v v v v v v v v v v v v v v v v v v v v v v v v v v v v v v v v v v p           ",
"      p v v v v v v v v v v b b b b b b b v v v v v v v v v v v v v v v v v v v v v v v v v v v v v v v v v v v v v p           ",
"    p p v v v v v v v v v v v v v v v v v v v v v v v v v v v v v v v v v v v v v v v v v v v v v v v v v v v v v v p p p       ",
"    p v v v v v v v v v v v v v v v v v v v v v v v v v v v v v v v v v v v v v v v v v v v v v v v v v v v v v v v v v p       ",
"    p v v v v v v v v v v v v v v v v v v v v v v v v v v v v v v v v v v v v v v v v v v v v v v v v v v v v v v v v v p       ",
"    p v v v v v v v v v v v v v v v v v v v v v v v v v v v v v v v v v v v v v v v v v v v v v v v v v v v v v v v v v p       ",
"    p v v v v v v v v v v v v v v v v v v v v v v v v v v v v v v v v v v v v v v v v v v v v v v v v v v v v v v v v v p       ",
"    p v v v v v v v v v v v v v v v v v v v v v v v v v v v v v v v v v v v v v v v v v v v v v v v v v v v v v v v v v p       ",
"    p v v v v v v v v v v v v v v v v v v v v v v v v v v v v v v v v v v v v v v v v v v v v v v v v v v v v v v v v v p       ",
"    p v v v v v v v v v v v v v v v v v v v v v v v v v v v v v v v v v v v v v v v v v v v v v v v v v v v v v v v v v p       ",
"    p v v v v v v v v v v v v v v v v v v v v v v v v v v v v v v v v v v v v v v v v v v v v v v v v v v v v v v v v v p       ",
"    p v v v v v v v v v v v v v v v v v v v v v v v v v v v v v v v v v v v v v v v v v v v v v v v v v v v v v v v v v p       ",
"    p v v v v v v v v v v v v v v v v v v v v v v v v v v v v v v v v v v v v v v v v v v v v v v v v v v v v v v v v v p       ",
"    p v v v v v v v v v v v v v v v v v v v v v v v v v v v v v v v v v v v v v v v v v v v v v v v v v v v v v v v v v p       ",
"    p v v v v v v v v v v v v v v v v v v v v v v v v v v v v v v v v v v v v v v v v v v v v v v v v v v v v v v v v v p       ",
"    p v v v v v v v v v v v v v v v v v v v v v v v v v v v v v v v v v v v v v v v v v v v v v v v v v v v v v v v v v p       ",
"    p v v v v v v v v v v v v v v v v v v v v v v v v v v v v v v v v v v v v v v v v v v v v v v v v v v v v v v v v v p       ",
"    p v v v v v v v v v v v v v v p p p p p p p p p p p p v v v v v v v v v v v v v v v v v v v v v v v v v v v v v v v p       ",
"    p v v v v v v v v v v v v v v p p p p p p p p p p p p v v v v v v v v v v v v v v v v v v v v v v v v v v v v v v v p       ",
"    p v v v v v v v v v v v v v v p p p p p p p p p p p p v v v v v v v v v v v v v v v v v v v v v v v v v v v v v v v p       ",
"    p p p p p p p p p p p p p p p p p p p p p p p p p p p v v v v v v v v v v v v v v v v v v v v v v v v v v v v v v v p       ",
"    p p p p p p p p p p p p p p p p p p p b b b b p p p p v v v v v v v v v v v v v v v v v v v v v v v v v v v v v v v p       ",
"    p p p p p p p p p p p p p p p p p p p b b b b p p p p p p p p p p p p p p p p p p p p p p p p p p p p p p p p p p p p       ",
"    p b b b b b b b b b b b b b b p p p p b b b b p p p p p p p p p p p p p p p p p p p p p p p p p p p p p p p p p p p p       ",
"    p p b b b b b b b b b b b b b p p p p p p p p p p p p p p p p p p p p p p p p p p p p p p p p p p p p p p p p p p p p       ",
"      p b b b b b b b b b b b b b p p p p p p p p p p p p b b b b b b b b b b b b b b b b b b b b b b b b b b b b b b b p       ",
"      p b b b b b b b b b b b b b p p p p p p p p p p p p b b b b b b b b b b b b b b b b b b b b b b b b b b b b b b b p       ",
"      p b b b b b b b b b b b b b b b b b b b b b b b b b b b b b b b b b b b b b b b b b b b b b b b b b b b b b b b b p       ",
"      p b b b b b b b b b b b b b b b b b b b b b b b b b b b b b b b b b b b b b b b b b b b b b b b b b b b b b b b b p       ",
"      p b b b b b b b b b b b b b b b b b b b b b b b b b b b b b b b b b b b b b b b b b b b b b b b b b b b b b b b b p       ",
"      p p p b b b b b b b b b b b b b b b b b b b b b b b b b b b b b b b b b b b b b b b b b b b b b b b b b b p p p p p       ",
"          p p p b b b b b b b b b b b b b b b b b b b b b b b b b b b b b b b b b b b b b b b b b b b b b b b b p               ",
"              p b b b b b b b b b b b b b b b b b b b b b b b b b b b b b b b b b b b b b b b b b b b b b b b b p               ",
"              p b b b b b b b b b b b b b b b b b b b b b b b b b b b b b b b b b b b b b b b b b b b b b b b b p               ",
"              p p p p p b b b b b b b b b b b b b b b b b b b b b b b b b b b b b b b b b b b b b b b b b p p p p               ",
"                      p b b b b b b b b b b b b b b b b b b b b b b b b b b b b b b b b b b b b b b b b p p                     ",
"                      p b b b b b b b b b b b b b b b b b b b b b b b b b b b b b b b b b b b b b b b b p                       ",
"                      p b b b b b b b b b b b b b b b b b b b b b b b b b b b b b b b b b b b b b b b b p                       ",
"                      p p p p b b b b b b b b b b b b b b b b b b b b b b b b b b b b b b b b b b p p p p                       ",
"                            p b b b b b b b b b b b b b b b b b b b b b b b b b b b b b b b b b b p p                           ",
"                            p b b b b b b b b b b b b b b b b b b b b b b b b b b b b b b b b b b p                             ",
"                            p p p p p p p b b b b b b b b b b b b b b b b b b b b b b p p p p p p p                             ",
"                                          p p p p p p p p p p p p p p p p p p p p p p                                           ",
"                                                                                                                                ",
"                                                                                                                                ",
"                                                                                                                                "};
