/* XPM */
static char * tree_vpm[] = {
"64 64 5 2",
"  	c None",
"n 	c #5F3914",
"x 	c #8C6238",
"g 	c #228B22",
"b 	c #FFFF00",
"                                                            b b b b                                                             ",
"                                                            b b b b                                                             ",
"                                                            b b b b                                                             ",
"                                                            b b b b                                                             ",
"                                                            b b b b                                                             ",
"                                                            g g g g                                                             ",
"                                                  g g g g g g g g g g g g g g                                                   ",
"                                                  g g g g g g g g g g g g g g                                                   ",
"                                                  g g g g g g g g g g g g g g                                                   ",
"                                                  g g g g g g g g g g g g g g                                                   ",
"                                                  g g g g g g g g g g g g g g                                                   ",
"                                                  g g g g g g g g g g g g g g                                                   ",
"                                                  g g g g g g g g g g g g g g                                                   ",
"                                                  g g g g g g g g g g g g g g                                                   ",
"                                          g g g g g g g g g g g g g g g g g g g g g g                                           ",
"                                          g g g g g g g g g g g g g g g g g g g g g g                                           ",
"                                          g g g g g g g g g g g g g g g g g g g g g g                                           ",
"                                g g g g g g g g g g g g g g g g g g g g g g g g g g g g g g g g                                 ",
"                                g g g g g g g g g g g g g g g g g g g g g g g g g g g g g g g g                                 ",
"                                g g g g g g g g g g g g g g g g g g g g g g g g g g g g g g g g                                 ",
"                                g g g g g g g g g g g g g g g g g g g g g g g g g g g g g g g g                                 ",
"                        g g g g g g g g g g g g g g g g g g g g g g g g g g g g g g g g g g g g g g g g                         ",
"                        g g g g g g g g g g g g g g g g g g g g g g g g g g g g g g g g g g g g g g g g                         ",
"                        g g g g g g g g g g g g g g g g g g g g g g g g g g g g g g g g g g g g g g g g                         ",
"                        g g g g g g g g g g g g g g g g g g g g g g g g g g g g g g g g g g g g g g g g                         ",
"                                          g g g g g g g g g g g g g g g g g g g g g g                                           ",
"                                          g g g g g g g g g g g g g g g g g g g g g g                                           ",
"                                          g g g g g g g g g g g g g g g g g g g g g g                                           ",
"                                  g g g g g g g g g g g g g g g g g g g g g g g g g g g g g g                                   ",
"                                g g g g g g g g g g g g g g g g g g g g g g g g g g g g g g g g                                 ",
"                                g g g g g g g g g g g g g g g g g g g g g g g g g g g g g g g g                                 ",
"                                g g g g g g g g g g g g g g g g g g g g g g g g g g g g g g g g                                 ",
"                        g g g g g g g g g g g g g g g g g g g g g g g g g g g g g g g g g g g g g g g g                         ",
"                        g g g g g g g g g g g g g g g g g g g g g g g g g g g g g g g g g g g g g g g g                         ",
"                        g g g g g g g g g g g g g g g g g g g g g g g g g g g g g g g g g g g g g g g g                         ",
"                      g g g g g g g g g g g g g g g g g g g g g g g g g g g g g g g g g g g g g g g g g g                       ",
"              g g g g g g g g g g g g g g g g g g g g g g g g g g g g g g g g g g g g g g g g g g g g g g g g g g               ",
"              g g g g g g g g g g g g g g g g g g g g g g g g g g g g g g g g g g g g g g g g g g g g g g g g g g               ",
"              g g g g g g g g g g g g g g g g g g g g g g g g g g g g g g g g g g g g g g g g g g g g g g g g g g               ",
"                                g g g g g g g g g g g g g g g g g g g g g g g g g g g g g g g g                                 ",
"                                g g g g g g g g g g g g g g g g g g g g g g g g g g g g g g g g                                 ",
"                                g g g g g g g g g g g g g g g g g g g g g g g g g g g g g g g g                                 ",
"                                g g g g g g g g g g g g g g g g g g g g g g g g g g g g g g g g                                 ",
"                        g g g g g g g g g g g g g g g g g g g g g g g g g g g g g g g g g g g g g g g g                         ",
"                        g g g g g g g g g g g g g g g g g g g g g g g g g g g g g g g g g g g g g g g g                         ",
"                        g g g g g g g g g g g g g g g g g g g g g g g g g g g g g g g g g g g g g g g g                         ",
"                      g g g g g g g g g g g g g g g g g g g g g g g g g g g g g g g g g g g g g g g g g g                       ",
"              g g g g g g g g g g g g g g g g g g g g g g g g g g g g g g g g g g g g g g g g g g g g g g g g g g               ",
"              g g g g g g g g g g g g g g g g g g g g g g g g g g g g g g g g g g g g g g g g g g g g g g g g g g               ",
"              g g g g g g g g g g g g g g g g g g g g g g g g g g g g g g g g g g g g g g g g g g g g g g g g g g               ",
"      g g g g g g g g g         g g g g g         g g g g g g g g g g g g g g         g g g g g         g g g g g g g g g       ",
"      g g g g g g g g g         g g g g g         g g g g g g g g g g g g g g         g g g g g         g g g g g g g g g       ",
"      g g g g g g g g g         g g g g g         g g g g g g g g g g g g g g         g g g g g         g g g g g g g g g       ",
"      g g g g g g g g g         g g g g g         g g g g x x x x x x g g g g         g g g g g         g g g g g g g g g       ",
"                                                  g g g g x x x x x x g g g g                                                   ",
"                                                  n n n n x x x x x x n n n n                                                   ",
"                                                  n n n n x x x x x x n n n n                                                   ",
"                                                  n n n n n n n n n n n n n n                                                   ",
"                                                  n n n n n n n n n n n n n n                                                   ",
"                                                  n n n n n n n n n n n n n n                                                   ",
"                                                  n n n n n n n n n n n n n n                                                   ",
"                                                  n n n n n n n n n n n n n n                                                   ",
"                                                  n n n n n n n n n n n n n n                                                   ",
"                                                  n n n n n n n n n n n n n n                                                   "};
